<svg width="28" height="10" viewBox="0 0 28 10" fill="none" xmlns="http://www.w3.org/2000/svg">
<path d="M4.99835 9.03094C4.76909 9.26021 4.39738 9.26021 4.16812 9.03094L0.20538 5.0682C-0.0238813 4.83894 -0.023881 4.46723 0.205381 4.23797C0.434643 4.00871 0.80635 4.00871 1.03561 4.23797L4.99835 8.20071C5.22761 8.42998 5.22761 8.80168 4.99835 9.03094Z" fill="white"/>
<path d="M4.97396 0.140344C5.16109 0.327468 5.16109 0.630857 4.97396 0.817981L0.818957 4.97299C0.631833 5.16011 0.328444 5.16011 0.14132 4.97299C-0.0458045 4.78586 -0.0458046 4.48247 0.14132 4.29535L4.29633 0.140343C4.48345 -0.0467813 4.78684 -0.0467809 4.97396 0.140344Z" fill="white"/>
<path d="M27.1058 4.56512C27.1058 4.84126 26.8819 5.06512 26.6058 5.06512L0.605774 5.06512C0.329632 5.06512 0.105774 4.84126 0.105774 4.56512C0.105774 4.28898 0.329632 4.06512 0.605774 4.06512L26.6058 4.06512C26.8819 4.06512 27.1058 4.28898 27.1058 4.56512Z" fill="white"/>
</svg>
