<svg width="28" height="10" viewBox="0 0 28 10" fill="none" xmlns="http://www.w3.org/2000/svg">
<path d="M22.1081 0.171693C22.3374 -0.0575689 22.7091 -0.057569 22.9383 0.171693L26.9011 4.13443C27.1303 4.3637 27.1303 4.7354 26.9011 4.96466C26.6718 5.19393 26.3001 5.19393 26.0708 4.96466L22.1081 1.00192C21.8788 0.772661 21.8788 0.400955 22.1081 0.171693Z" fill="white"/>
<path d="M22.1325 9.06229C21.9454 8.87517 21.9454 8.57178 22.1325 8.38466L26.2875 4.22965C26.4746 4.04252 26.778 4.04253 26.9651 4.22965C27.1522 4.41677 27.1522 4.72016 26.9651 4.90729L22.8101 9.06229C22.623 9.24942 22.3196 9.24942 22.1325 9.06229Z" fill="white"/>
<path d="M0.000671387 4.63752C0.000671411 4.36137 0.224529 4.13752 0.500671 4.13752L26.5007 4.13752C26.7768 4.13752 27.0007 4.36138 27.0007 4.63752C27.0007 4.91366 26.7768 5.13752 26.5007 5.13752L0.500671 5.13752C0.224529 5.13752 0.000671363 4.91366 0.000671387 4.63752Z" fill="white"/>
</svg>
